<svg width="310" height="108" viewBox="0 0 310 108" fill="none" xmlns="http://www.w3.org/2000/svg">
<g clip-path="url(#clip0_1436_487)">
<path d="M0 78.8904H6.40521V102.018H13.2604V106.759H0V78.8877V78.8904Z" fill="#FEC32E"/>
<path d="M24.8793 78.3133C31.0409 78.3133 35.6091 83.9808 35.6091 93.0006C35.6091 100.555 31.7344 107.339 24.8392 107.339C17.9439 107.339 14.1094 100.902 14.1094 92.8435C14.1094 83.7073 18.7578 78.3105 24.8793 78.3105V78.3133ZM24.8793 103.139C28.1435 103.139 29.0405 98.3594 29.0405 92.922C29.0405 87.1002 28.0604 82.3588 24.8793 82.3588C21.5348 82.3588 20.6779 87.3303 20.6779 92.8814C20.6779 98.9713 21.7383 103.136 24.8793 103.136V103.139Z" fill="#FEC32E"/>
<path d="M51.3427 87.6424C51.3026 85.1756 50.6893 83.0554 49.0157 83.0554C46.4049 83.0554 45.4247 87.4881 45.4247 93.1556C45.4247 98.1678 46.3246 102.985 49.0157 102.985C50.8126 102.985 51.423 100.673 51.4631 98.2815H58.3584C57.4585 103.795 53.4205 107.342 49.0157 107.342C41.4269 107.342 38.4492 99.5542 38.4492 93.2341C38.4492 86.2939 41.7134 78.7012 49.0157 78.7012C53.4234 78.7012 57.3811 82.2105 58.1549 87.6452H51.3427V87.6424Z" fill="#FEC32E"/>
<path d="M72.0945 101.287H66.3026L65.3225 106.759H59.3672L65.4056 78.8877H72.8711L79.2362 106.759H73.0345L72.0974 101.287H72.0945ZM69.4006 86.0987H69.0739L67.0334 96.8136H71.358L69.4006 86.0987Z" fill="#FEC32E"/>
<path d="M82.0781 78.8904H88.4833V102.018H95.3385V106.759H82.081V78.8877L82.0781 78.8904Z" fill="#FEC32E"/>
<path d="M107.762 78.8904H121.349V83.4396H113.966V90.0683H120.778V94.6175H113.966V102.134H121.635V106.759H107.765V78.8877L107.762 78.8904Z" fill="#FEC32E"/>
<path d="M136.758 106.762H129.373L123.051 78.8906H129.7L133.25 99.0911H133.494L136.838 78.8906H142.713L136.758 106.762Z" fill="#FEC32E"/>
<path d="M145.561 78.8904H159.148V83.4396H151.765V90.0683H158.577V94.6175H151.765V102.134H159.434V106.759H145.563V78.8877L145.561 78.8904Z" fill="#FEC32E"/>
<path d="M162.888 78.8906H171.21C175.655 78.8906 180.553 81.5524 180.553 86.5619C180.553 90.1877 178.349 92.4596 175.371 93.8108L181.653 106.762H174.718L169.536 94.8127H169.21L169.25 106.762H162.885V78.8906H162.888ZM169.213 91.3413L170.683 91.3033C172.64 91.2654 173.987 89.6841 173.987 87.2172C173.987 84.7504 172.477 83.2854 170.723 83.2475L169.213 83.2096V91.344V91.3413Z" fill="#FEC32E"/>
<path d="M195.146 95.8525C194.656 95.8904 194.372 96.237 194.372 96.7028V106.762H188.047V96.7028C188.047 96.2397 187.721 95.8931 187.234 95.8525L181.275 78.8906H187.964L191.472 92.2294H191.719L195.35 78.8906H201.345L195.143 95.8525H195.146Z" fill="#FEC32E"/>
<path d="M208.639 78.8903L210.066 97.2792H210.392L213.697 78.8145H219.368L222.549 97.0842H222.876L224.427 78.8903H229.608L226.06 106.762H219.532L216.677 89.2234H216.351L213.25 106.762H206.641L202.887 78.8903H208.641H208.639Z" fill="#FEC32E"/>
<path d="M239.504 78.8906V90.0307H245.215V78.8906H251.62V106.762H245.215V94.5446H239.504V106.762H233.262V78.8906H239.504Z" fill="#FEC32E"/>
<path d="M256.504 78.8904H270.088V83.4396H262.703V90.0683H269.518V94.6175H262.703V102.134H270.375V106.759H256.504V78.8877V78.8904Z" fill="#FEC32E"/>
<path d="M273.83 78.8906H282.153C286.598 78.8906 291.495 81.5524 291.495 86.5619C291.495 90.1877 289.291 92.4596 286.314 93.8108L292.596 106.762H285.66L280.479 94.8127H280.152L280.192 106.762H273.83V78.8906ZM280.152 91.3413L281.622 91.3033C283.58 91.2654 284.927 89.6841 284.927 87.2172C284.927 84.7504 283.416 83.2854 281.662 83.2475L280.152 83.2096V91.344V91.3413Z" fill="#FEC32E"/>
<path d="M295.643 78.8904H309.227V83.4396H301.841V90.0683H308.656V94.6175H301.841V102.134H309.513V106.759H295.643V78.8877V78.8904Z" fill="#FEC32E"/>
<path d="M155.101 0.0653861C154.987 0.0626783 154.872 0.0410156 154.757 0.0410156C154.643 0.0410156 154.528 0.0626783 154.414 0.0653861C139.597 0.241395 127.598 11.6712 127.598 25.7113C127.598 39.7514 139.78 51.3734 154.757 51.3734C169.734 51.3734 181.917 39.8624 181.917 25.7113C181.917 11.5601 169.918 0.244103 155.101 0.0653861ZM130.664 27.1248H137.941C138.047 30.1576 138.462 33.0414 139.176 35.6842H133.046C131.693 33.0685 130.862 30.1792 130.661 27.1248H130.664ZM156.253 12.9141V3.00609C160.403 3.74263 164.011 7.49839 166.244 12.9141H156.253ZM167.218 15.741C167.992 18.3568 168.471 21.2461 168.582 24.3005H156.251V15.741H167.215H167.218ZM153.261 3.00609V12.9141H143.271C145.504 7.49839 149.112 3.73992 153.261 3.00609ZM153.261 15.741V24.3005H140.93C141.044 21.2461 141.52 18.3568 142.294 15.741H153.259H153.261ZM137.941 24.3005H130.664C130.862 21.2461 131.696 18.3568 133.049 15.741H139.173C138.459 18.3839 138.044 21.2677 137.941 24.3005ZM140.93 27.1248H153.261V35.6842H142.302C141.526 33.0685 141.047 30.1792 140.933 27.1248H140.93ZM153.261 38.5112V48.4002C149.117 47.6637 145.515 43.9161 143.283 38.5112H153.261ZM156.253 48.4029V38.5139H166.232C164 43.9188 160.397 47.6691 156.253 48.4029ZM156.253 35.6842V27.1248H168.585C168.471 30.1792 167.992 33.0685 167.215 35.6842H156.256H156.253ZM171.574 27.1248H178.851C178.653 30.1792 177.819 33.0685 176.466 35.6842H170.336C171.05 33.0414 171.468 30.1576 171.571 27.1248H171.574ZM171.574 24.3005C171.471 21.2677 171.056 18.3839 170.342 15.741H176.466C177.816 18.3568 178.65 21.2461 178.851 24.3005H171.574ZM174.761 12.9141H169.431C168.264 9.76756 166.671 7.06243 164.765 4.95032C168.817 6.70229 172.282 9.46157 174.764 12.9141H174.761ZM144.753 4.95032C142.847 7.06243 141.253 9.76756 140.087 12.9141H134.757C137.238 9.46157 140.703 6.70229 144.756 4.95032H144.753ZM134.754 38.5112H140.093C141.265 41.6659 142.864 44.3737 144.779 46.4858C140.715 44.7365 137.241 41.9691 134.754 38.5112ZM164.736 46.4858C166.651 44.3737 168.25 41.6659 169.422 38.5112H174.761C172.274 41.9691 168.8 44.7365 164.736 46.4858Z" fill="#FEC32E"/>
</g>
<defs>
<clipPath id="clip0_1436_487">
<rect width="309.513" height="107.298" fill="white" transform="translate(0 0.0410156)"/>
</clipPath>
</defs>
</svg>
