<svg width="84" height="84" viewBox="0 0 84 84" fill="none" xmlns="http://www.w3.org/2000/svg">
<path d="M42.5318 0.0398797C42.3545 0.0354486 42.1773 0 42 0C41.8227 0 41.6454 0.0354486 41.4682 0.0398797C18.5559 0.3279 0 19.0315 0 42.0066C0 64.9818 18.8395 84 42 84C65.1605 84 84 65.1635 84 42.0066C84 18.8498 65.4441 0.332331 42.5318 0.0398797ZM4.742 44.3197H15.9943C16.1583 49.2825 16.8009 54.0016 17.9044 58.3263H8.42481C6.33301 54.0459 5.0478 49.3179 4.73758 44.3197H4.742ZM44.3134 21.0654V4.85203C50.7306 6.05729 56.3102 12.2032 59.7626 21.0654H44.3134ZM61.2694 25.6914C62.466 29.9718 63.2061 34.6998 63.3789 39.6981H44.309V25.6914H61.2649H61.2694ZM39.6866 4.85203V21.0654H24.2374C27.6898 12.2032 33.2694 6.05286 39.6866 4.85203ZM39.6866 25.6914V39.6981H20.6166C20.7939 34.6998 21.5296 29.9718 22.7262 25.6914H39.6822H39.6866ZM15.9943 39.6981H4.742C5.04779 34.6998 6.33744 29.9718 8.42924 25.6914H17.9C16.7964 30.0161 16.1538 34.7352 15.9943 39.6981ZM20.6166 44.3197H39.6866V58.3263H22.7395C21.5385 54.0459 20.7984 49.3179 20.6211 44.3197H20.6166ZM39.6866 62.9524V79.1347C33.2783 77.9294 27.7075 71.7968 24.2551 62.9524H39.6866ZM44.3134 79.1391V62.9568H59.7448C56.2925 71.8012 50.7217 77.9383 44.3134 79.1391ZM44.3134 58.3263V44.3197H63.3833C63.2061 49.3179 62.466 54.0459 61.2649 58.3263H44.3178H44.3134ZM68.0057 44.3197H79.258C78.9522 49.3179 77.6625 54.0459 75.5707 58.3263H66.0912C67.1947 54.0016 67.8417 49.2825 68.0013 44.3197H68.0057ZM68.0057 39.6981C67.8461 34.7352 67.2035 30.0161 66.1 25.6914H75.5707C77.6581 29.9718 78.9478 34.6998 79.258 39.6981H68.0057ZM72.9338 21.0654H64.6907C62.887 15.9164 60.4229 11.4898 57.4758 8.03355C63.7423 10.9005 69.1003 15.4157 72.9383 21.0654H72.9338ZM26.5286 8.03355C23.5815 11.4898 21.1174 15.9164 19.3137 21.0654H11.0706C14.9085 15.4157 20.2665 10.9005 26.5331 8.03355H26.5286ZM11.0662 62.9524H19.3226C21.1352 68.1146 23.6081 72.5457 26.5685 76.0019C20.2843 73.1394 14.9129 68.6109 11.0662 62.9524ZM57.4315 76.0019C60.3919 72.5457 62.8648 68.1146 64.6774 62.9524H72.9338C69.087 68.6109 63.7157 73.1394 57.4315 76.0019Z" fill="#FEC32E"/>
</svg>
