<svg width="243" height="200" viewBox="0 0 243 200" fill="none" xmlns="http://www.w3.org/2000/svg">
<g clip-path="url(#clip0_1436_418)">
<path d="M229.112 195.547V190.638H226.459V189.78H233.163V190.638H230.497V195.547H229.125H229.112ZM234.073 195.547V189.78H236.079L238.151 194.386L240.144 189.78H242.123V195.547H240.87V190.704L238.758 195.547H237.518L235.314 190.638V195.547H234.06H234.073Z" fill="white"/>
<path d="M0.863281 0.527864H28.9324L37.0219 59.5166H37.4179L44.9795 0.527864H74.2232V91.8879H55.9459V20.6263H55.418L44.5968 91.8879H27.2301L16.3957 20.6263H15.8678V91.8879H0.863281V0.527864Z" fill="white"/>
<path d="M93.6608 0H116.636L134.913 91.8879H116.121L112.598 72.7H95.2444L91.8528 91.8879H75.6738L93.6608 0ZM109.985 57.6955L104.112 24.9284H103.466L97.9761 57.6955H109.985Z" fill="white"/>
<path d="M136.34 0.527864H163.485C177.843 0.527864 185.154 7.70681 185.154 22.7113V69.4405C185.154 84.7089 177.975 91.8879 163.617 91.8879H136.34V0.527864ZM160.358 76.1048C165.702 76.1048 167.009 73.6238 167.009 69.0578V23.3712C167.009 19.5837 165.966 16.3242 160.358 16.3242H154.485V76.1048H160.358Z" fill="white"/>
<path d="M189.469 0.527864H230.708V16.3242H207.614V36.6865H226.142V52.7336H207.614V76.1048H230.708V91.8879H189.469V0.527864Z" fill="white"/>
<path d="M11.7632 176.135V130.58C11.7632 113.609 22.7296 105.388 36.4276 105.388C50.1257 105.388 59.7856 114.269 59.7856 129.538V139.976H42.4321V129.92C42.4321 126.265 40.9937 122.214 36.1637 122.214C31.3337 122.214 29.8953 126.001 29.8953 130.052V175.739C29.8953 178.748 30.4232 183.446 35.8998 183.446C40.0831 183.446 42.4321 180.318 42.4321 176.531V163.215H34.5933V149.636H59.7856V198.318H51.1682L48.4233 192.71C43.8573 199.242 36.5464 199.889 32.1123 199.889C18.2823 199.889 11.75 191.535 11.75 176.135" fill="white"/>
<path d="M63.9702 175.739V129.406C63.9702 115.048 73.7621 105.388 88.5027 105.388C103.243 105.388 112.784 115.048 112.784 130.052V175.871C112.784 189.965 102.993 199.889 88.2388 199.889C71.5319 199.889 63.957 190.493 63.957 175.739M94.6523 175.607V129.657C94.6523 125.737 92.6992 122.214 88.252 122.214C83.8047 122.214 82.1155 125.737 82.1155 129.657V175.607C82.1155 179.658 83.6859 183.05 88.252 183.05C92.818 183.05 94.6523 179.79 94.6523 175.607Z" fill="white"/>
<path d="M116.703 175.739V129.406C116.703 115.048 126.495 105.388 141.235 105.388C155.976 105.388 165.517 115.048 165.517 130.052V175.871C165.517 189.965 155.725 199.889 140.971 199.889C124.264 199.889 116.689 190.493 116.689 175.739M147.372 175.607V129.657C147.372 125.737 145.418 122.214 140.971 122.214C136.524 122.214 134.835 125.737 134.835 129.657V175.607C134.835 179.658 136.405 183.05 140.971 183.05C145.537 183.05 147.372 179.79 147.372 175.607Z" fill="white"/>
<path d="M169.818 106.958H196.964C211.322 106.958 218.633 114.137 218.633 129.142V175.871C218.633 191.139 211.454 198.318 197.096 198.318H169.818V106.945V106.958ZM193.836 182.522C199.181 182.522 200.487 180.041 200.487 175.475V129.788C200.487 126.001 199.445 122.742 193.836 122.742H187.964V182.522H193.836Z" fill="white"/>
</g>
<defs>
<clipPath id="clip0_1436_418">
<rect width="241.273" height="199.889" fill="white" transform="translate(0.863281)"/>
</clipPath>
</defs>
</svg>
